:FULLY-SPECIFIED
:FORCE-ALL-JOINTS-BE-3DOF
:DEGREES
510
root 5.89902 16.3179 -5.21809 -167.39 77.8591 -172.579
lfemur -25.0444 -15.196 -22.8256
ltibia 53.6169 -0 0
lfoot -26.3186 -2.34631 -0.037243
ltoes 5.90348 -0 0
rfemur -57.6533 5.68471 4.53489
rtibia 58.3077 -0 0
rfoot 11.2378 8.49126 0.00346418
rtoes -18.7448 0 0
lowerback 8.72349 0.254105 -0.497193
upperback 1.46214 0.506041 3.12885
thorax -3.40865 0.310977 3.47197
lowerneck -8.52153 -12.4332 -4.05121
upperneck 11.6694 -16.5249 2.72972
head 5.47872 -8.05149 0.21762
lclavicle 0 0 0
lhumerus -46.9771 -34.3441 117.904
lradius 57.1668 -0 0
lwrist 7.07894 0 0
lhand 5.09144 -0.987815 0.0784929
lfingers 0 0 0
lthumb 30.4465 26.4172 0.0428932
rclavicle 0 0 0
rhumerus -13.1868 42.1992 -73.8848
rradius 116.601 -0 0
rwrist -14.8097 0 0
rhand 15.3319 -11.3698 -0.000839061
rfingers 0 0 0
rthumb 40.1635 -36.5434 0.000287546
511
root 5.94795 16.2933 -5.16928 -168.25 76.0811 -173.569
lfemur -25.4173 -14.4144 -22.901
ltibia 54.8475 -0 0
lfoot -26.5934 -1.17842 -0.0459469
ltoes 4.44131 -0 0
rfemur -57.1757 5.14041 3.84314
rtibia 56.4389 -0 0
rfoot 11.5598 8.58393 0.00427334
rtoes -19.9452 0 0
lowerback 8.87235 0.310532 -0.3242
upperback 1.59281 0.62561 3.42089
thorax -3.36535 0.375721 3.66588
lowerneck -8.35202 -12.7592 -4.30903
upperneck 11.8573 -16.9551 2.88554
head 5.56246 -8.25766 0.261028
lclavicle 0 0 0
lhumerus -46.6733 -33.9709 117.805
lradius 57.4027 -0 0
lwrist 7.71293 0 0
lhand 3.72878 -1.48422 0.0968424
lfingers 0 0 0
lthumb 29.144 26.1334 0.0529191
rclavicle 0 0 0
rhumerus -9.70527 39.4972 -72.0332
rradius 119.007 -0 0
rwrist -20.0134 0 0
rhand 15.5157 -11.4092 -0.00103504
rfingers 0 0 0
rthumb 40.3363 -36.5291 0.000354708
512
root 5.99245 16.27 -5.1245 -168.929 74.2106 -174.385
lfemur -25.8087 -13.5939 -22.9855
ltibia 56.1399 -0 0
lfoot -26.8821 0.0482623 -0.0490564
ltoes 2.90557 -0 0
rfemur -56.6674 4.57496 3.11232
rtibia 54.4761 -0 0
rfoot 11.8981 8.68127 0.00456237
rtoes -21.206 0 0
lowerback 9.0289 0.369313 -0.142345
upperback 1.73071 0.750476 3.72793
thorax -3.31964 0.443565 3.86959
lowerneck -8.17211 -13.1008 -4.58125
upperneck 12.0539 -17.4074 3.04799
head 5.6503 -8.47427 0.306317
lclavicle 0 0 0
lhumerus -46.3566 -33.5784 117.703
lradius 57.6506 -0 0
lwrist 8.37882 0 0
lhand 2.29744 -2.00591 0.103398
lfingers 0 0 0
lthumb 27.776 25.8352 0.056501
rclavicle 0 0 0
rhumerus -6.30501 36.5762 -70.385
rradius 121.533 -0 0
rwrist -25.4789 0 0
rhand 15.7087 -11.4505 -0.00110504
rfingers 0 0 0
rthumb 40.5178 -36.514 0.000378698
513
root 6.03189 16.2485 -5.08452 -169.447 72.3493 -175.041
lfemur -26.1977 -12.7789 -23.0749
ltibia 57.4247 -0 0
lfoot -27.1691 1.2676 -0.0460207
ltoes 1.37903 -0 0
rfemur -56.1555 4.01937 2.38144
rtibia 52.5251 -0 0
rfoot 12.2343 8.77802 0.0042802
rtoes -22.4592 0 0
lowerback 9.18469 0.42725 0.0385816
upperback 1.86846 0.87386 4.03344
thorax -3.27396 0.510841 4.07215
lowerneck -7.99138 -13.4396 -4.8533
upperneck 12.2484 -17.8576 3.20826
head 5.7375 -8.68966 0.351028
lclavicle 0 0 0
lhumerus -46.044 -33.1879 117.605
lradius 57.8969 -0 0
lwrist 9.04072 0 0
lhand 0.874666 -2.52448 0.096998
lfingers 0 0 0
lthumb 26.4162 25.5387 0.0530042
rclavicle 0 0 0
rhumerus -3.1463 33.6037 -69.0136
rradius 124.045 -0 0
rwrist -30.9116 0 0
rhand 15.9006 -11.4915 -0.0010367
rfingers 0 0 0
rthumb 40.6982 -36.4991 0.000355277
514
root 6.0656 16.2295 -5.0501 -169.832 70.5988 -175.556
lfemur -26.5633 -12.0136 -23.1639
ltibia 58.632 -0 0
lfoot -27.4387 2.41346 -0.037602
ltoes -0.055552 0 0
rfemur -55.6682 3.50324 1.69051
rtibia 50.6916 -0 0
rfoot 12.5503 8.86894 0.00349756
rtoes -23.6369 0 0
lowerback 9.33126 0.481248 0.208753
upperback 1.99851 0.989139 4.32082
thorax -3.23081 0.573916 4.26255
lowerneck -7.81979 -13.7571 -5.11033
upperneck 12.4305 -18.2812 3.35779
head 5.81933 -8.89212 0.392766
lclavicle 0 0 0
lhumerus -45.7522 -32.8204 117.516
lradius 58.1284 -0 0
lwrist 9.66275 0 0
lhand -0.462291 -3.01153 0.0792497
lfingers 0 0 0
lthumb 25.1384 25.2603 0.0433068
rclavicle 0 0 0
rhumerus -0.347516 30.7592 -67.9408
rradius 126.405 -0 0
rwrist -36.0171 0 0
rhand 16.0809 -11.5301 -0.000847145
rfingers 0 0 0
rthumb 40.8677 -36.485 0.000290316
515
root 6.09295 16.2137 -5.022 -170.108 69.0607 -175.947
lfemur -26.8846 -11.3419 -23.2459
ltibia 59.6923 -0 0
lfoot -27.6753 3.41971 -0.0257635
ltoes -1.31541 0 0
rfemur -55.2354 3.05485 1.08042
rtibia 49.0813 -0 0
rfoot 12.8277 8.94878 0.00239674
rtoes -24.6712 0 0
lowerback 9.46011 0.52831 0.358313
upperback 2.1132 1.08984 4.57342
thorax -3.19275 0.629191 4.4298
lowerneck -7.6677 -14.0354 -5.33714
upperneck 12.5898 -18.6535 3.48823
head 5.89111 -9.06998 0.429199
lclavicle 0 0 0
lhumerus -45.4975 -32.4974 117.44
lradius 58.3317 -0 0
lwrist 10.209 0 0
lhand -1.63625 -3.43881 0.0542951
lfingers 0 0 0
lthumb 24.0162 25.016 0.0296711
rclavicle 0 0 0
rhumerus 1.99565 28.2279 -67.1543
rradius 128.478 -0 0
rwrist -40.5007 0 0
rhand 16.2393 -11.564 -0.00058052
rfingers 0 0 0
rthumb 41.0166 -36.4727 0.000198944
516
root 6.11328 16.2015 -5.00099 -170.295 67.8366 -176.225
lfemur -27.1404 -10.8079 -23.3137
ltibia 60.5358 -0 0
lfoot -27.8634 4.22027 -0.0133779
ltoes -2.31778 0 0
rfemur -54.8877 2.70141 0.592783
rtibia 47.8002 -0 0
rfoot 13.0485 9.0123 0.00124471
rtoes -25.4941 0 0
lowerback 9.56272 0.565513 0.477382
upperback 2.20477 1.1696 4.77455
thorax -3.16235 0.673089 4.56289
lowerneck -7.54575 -14.2564 -5.51835
upperneck 12.7162 -18.95 3.59144
head 5.94816 -9.21152 0.458037
lclavicle 0 0 0
lhumerus -45.2958 -32.2403 117.38
lradius 58.4935 -0 0
lwrist 10.6436 0 0
lhand -2.57013 -3.77835 0.028191
lfingers 0 0 0
lthumb 23.1234 24.8218 0.0154063
rclavicle 0 0 0
rhumerus 3.79418 26.1956 -66.624
rradius 130.127 -0 0
rwrist -44.068 0 0
rhand 16.3653 -11.591 -0.000301486
rfingers 0 0 0
rthumb 41.1351 -36.4628 0.000103319
517
root 6.12596 16.1938 -4.98782 -170.405 67.0278 -176.396
lfemur -27.3094 -10.4553 -23.3598
ltibia 61.0931 -0 0
lfoot -27.9875 4.74906 -0.00375601
ltoes -2.97989 0 0
rfemur -54.6565 2.46958 0.269574
rtibia 46.954 -0 0
rfoot 13.1943 9.05426 0.000349509
rtoes -26.0377 0 0
lowerback 9.63054 0.58997 0.556071
upperback 2.26541 1.2221 4.90747
thorax -3.14221 0.702047 4.65082
lowerneck -7.46474 -14.4021 -5.6384
upperneck 12.7995 -19.1459 3.65934
head 5.98582 -9.30503 0.477014
lclavicle 0 0 0
lhumerus -45.1631 -32.0703 117.342
lradius 58.6003 -0 0
lwrist 10.9307 0 0
lhand -3.1869 -4.00238 0.00791454
lfingers 0 0 0
lthumb 22.5337 24.6937 0.00432541
rclavicle 0 0 0
rhumerus 4.95408 24.8456 -66.3173
rradius 131.217 -0 0
rwrist -46.4244 0 0
rhand 16.4485 -11.6088 -8.46567e-05
rfingers 0 0 0
rthumb 41.2133 -36.4563 2.90118e-05
